<svg width="132" height="32" viewBox="0 0 132 32" fill="none" xmlns="http://www.w3.org/2000/svg">
<path d="M131.661 6.302V23.3925C131.661 23.7685 131.527 24.0834 131.27 24.3372C131.007 24.5911 130.697 24.718 130.33 24.718C130.063 24.718 129.848 24.6757 129.696 24.5911C129.543 24.5065 129.419 24.4078 129.319 24.2949C129.166 24.1069 128.971 23.9988 128.732 23.9706C128.489 23.9424 128.265 23.9941 128.05 24.1257C127.916 24.2197 127.783 24.2996 127.649 24.3655C127.511 24.4313 127.368 24.5018 127.215 24.577C126.524 24.859 125.741 25 124.878 25C123.914 25 122.975 24.812 122.049 24.436C121.224 24.1163 120.461 23.6181 119.769 22.9412C119.44 22.6216 119.154 22.2738 118.906 21.8978C118.653 21.5217 118.434 21.1175 118.238 20.6851C117.856 19.8202 117.661 18.9083 117.661 17.9495C117.661 16.9906 117.856 16.0787 118.238 15.2139C118.624 14.349 119.135 13.6063 119.769 12.9859C120.098 12.6663 120.447 12.3843 120.823 12.1398C121.2 11.8954 121.606 11.6698 122.049 11.463C122.975 11.087 123.914 10.8989 124.878 10.8989H127.649C128.031 10.8989 128.351 10.7767 128.599 10.5323C128.851 10.2879 128.975 9.97767 128.975 9.60165V6.302C128.975 6.03878 129.047 5.80376 129.19 5.59694C129.338 5.39013 129.524 5.23032 129.753 5.11751C129.987 5.0235 130.211 4.9859 130.43 5.0047C130.654 5.0235 130.855 5.08931 131.036 5.20212C131.222 5.31492 131.37 5.46534 131.484 5.65335C131.599 5.84136 131.661 6.05758 131.661 6.302ZM129.581 17.9495C129.581 17.1974 129.39 16.4736 129.004 15.7779C128.618 15.0447 128.05 14.4618 127.301 14.0294C126.571 13.5969 125.76 13.3807 124.878 13.3807C124.224 13.3807 123.619 13.5029 123.061 13.7474C122.77 13.8602 122.502 13.9965 122.25 14.1563C122.002 14.3161 121.768 14.4994 121.558 14.7062C121.157 15.1011 120.819 15.5899 120.547 16.1727C120.318 16.7368 120.203 17.329 120.203 17.9495C120.203 18.6075 120.318 19.1998 120.547 19.7262C120.819 20.309 121.157 20.7979 121.558 21.1927C121.768 21.3995 122.002 21.5828 122.25 21.7427C122.502 21.9025 122.77 22.0388 123.061 22.1516C123.619 22.396 124.224 22.5182 124.878 22.5182C125.803 22.5182 126.609 22.302 127.301 21.8696C128.05 21.4559 128.618 20.8825 129.004 20.1492C129.39 19.4536 129.581 18.7203 129.581 17.9495Z" fill="white"/>
<path d="M114.661 18.0857V23.7429C114.661 24.0857 114.535 24.381 114.283 24.6286C114.027 24.8762 113.727 25 113.374 25C113.02 25 112.72 24.8762 112.468 24.6286C112.212 24.381 112.086 24.0857 112.086 23.7429V18.1429C112.086 17.819 112.072 17.5095 112.043 17.2143C112.013 16.919 111.951 16.6286 111.849 16.3429C111.713 15.7905 111.481 15.2952 111.147 14.8571C110.857 14.4381 110.465 14.1048 109.976 13.8571C109.487 13.6095 108.911 13.4857 108.248 13.4857C107.585 13.4857 106.999 13.6095 106.549 13.8571C106.041 14.0857 105.644 14.419 105.349 14.8571C105.02 15.2952 104.783 15.7905 104.647 16.3429C104.492 16.9524 104.415 17.5524 104.415 18.1429H104.386V23.7429C104.386 24.0857 104.255 24.381 104.003 24.6286C103.752 24.8762 103.447 25 103.098 25H102.948C102.6 25 102.295 24.8762 102.043 24.6286C101.787 24.381 101.661 24.0857 101.661 23.7429V17.4286C101.661 16.5524 101.83 15.7238 102.174 14.9429C102.518 14.1619 102.982 13.4762 103.578 12.8857C104.173 12.2952 104.875 11.8333 105.673 11.5C106.472 11.1667 107.333 11 108.248 11C109.163 11 110.102 11.181 110.944 11.5429C111.742 11.9238 112.406 12.4381 112.933 13.0857C113.461 13.6762 113.891 14.4286 114.22 15.3429C114.516 16.2 114.661 17.1143 114.661 18.0857Z" fill="white"/>
<path d="M98.6609 17.608V22.592C98.6609 23.1893 98.4482 23.6933 98.0179 24.104C97.5924 24.5147 97.0654 24.72 96.4418 24.72H96.2919C96.0598 24.72 95.8471 24.692 95.6488 24.636C95.4555 24.58 95.2137 24.5333 94.9188 24.496C94.6287 24.4587 94.3628 24.4867 94.1307 24.58C93.449 24.86 92.6561 25 91.7617 25C90.727 25 89.7698 24.8227 88.8947 24.468C88.0341 24.1133 87.2653 23.6093 86.5836 22.956C85.9213 22.284 85.4039 21.5467 85.0317 20.744C84.6449 19.848 84.4467 18.9333 84.4467 18C84.4467 17.0667 84.6449 16.1427 85.0317 15.284C85.4039 14.444 85.9213 13.7067 86.5836 13.072C87.2653 12.4187 88.0341 11.9147 88.8947 11.56C89.8278 11.1867 90.7851 11 91.7617 11C92.7383 11 93.6134 11.1727 94.4498 11.518C95.2911 11.8633 96.0211 12.3347 96.6448 12.932C97.2685 13.5293 97.7616 14.2293 98.1243 15.032C98.482 15.8347 98.6609 16.6933 98.6609 17.608ZM96.5288 18C96.5288 17.216 96.3402 16.4973 95.9728 15.844C95.5618 15.116 94.9865 14.5373 94.2468 14.108C93.5264 13.6787 92.6948 13.464 91.7617 13.464C91.0993 13.464 90.4853 13.5853 89.9196 13.828C89.6247 13.94 89.354 14.0753 89.0977 14.234C88.8463 14.3927 88.6094 14.5747 88.3967 14.78C87.9664 15.228 87.6279 15.7133 87.3717 16.236C87.1396 16.796 87.0236 17.384 87.0236 18C87.0236 18.6533 87.1396 19.2413 87.3717 19.764C87.6279 20.2867 87.9664 20.772 88.3967 21.22C88.8656 21.6307 89.3733 21.9573 89.9196 22.2C90.5046 22.424 91.1187 22.536 91.7617 22.536C92.6948 22.536 93.5264 22.3213 94.2468 21.892C94.9671 21.4813 95.5425 20.912 95.9728 20.184C96.3402 19.5307 96.5288 18.8027 96.5288 18Z" fill="white"/>
<path d="M82.6846 22.8777C82.8949 23.1061 83 23.3822 83 23.7058C83 24.1057 82.8298 24.4389 82.4893 24.7054C82.1488 24.9719 81.7682 25.0576 81.3476 24.9624C81.0873 24.9053 80.8369 24.8387 80.5966 24.7625C80.3562 24.6864 80.1259 24.6007 79.9056 24.5055C79.465 24.3151 79.0644 24.0961 78.7039 23.8486C78.3383 23.6011 78.0079 23.3251 77.7024 23.0204C77.1366 22.3922 76.711 21.6592 76.4256 20.8214C76.2654 20.4216 76.1552 20.0028 76.0951 19.5649C76.03 19.127 76 18.6605 76 18.1655V6.31369C76 5.95195 76.1352 5.64257 76.3956 5.38554C76.6609 5.12851 76.9814 5 77.367 5C77.7525 5 78.078 5.12851 78.3434 5.38554C78.6037 5.64257 78.7339 5.95195 78.7339 6.31369V18.1655C78.7339 18.4701 78.7539 18.7557 78.794 19.0222C78.8341 19.2888 78.8841 19.5553 78.9442 19.8219C79.0844 20.3359 79.3248 20.7929 79.6652 21.1927C80.0057 21.5925 80.4363 21.9067 80.9571 22.1351C81.1974 22.2494 81.5079 22.3446 81.8884 22.4207C82.2089 22.4969 82.4743 22.6492 82.6846 22.8777Z" fill="white"/>
<path d="M71.9914 20.584C72.0302 21.1033 71.9575 21.6044 71.7685 22.0782C71.5794 22.5566 71.308 22.9848 70.9493 23.3675C70.5906 23.7502 70.1786 24.0737 69.7132 24.3333C69.2479 24.593 68.7438 24.7707 68.2106 24.8664C67.2945 25.0349 66.3638 25.044 65.4089 24.8937C64.9533 24.839 64.5025 24.7251 64.0663 24.5566C63.8675 24.4837 63.6688 24.3926 63.4701 24.2923C63.2713 24.1876 63.1162 24.0554 62.995 23.8869C62.8545 23.7001 62.7769 23.5042 62.7575 23.2992C62.7381 23.0942 62.7721 22.8937 62.8593 22.6978C62.9514 22.4974 63.0774 22.3334 63.2471 22.1921C63.4167 22.0509 63.6203 21.9644 63.8578 21.9279C64.139 21.8869 64.4104 21.9097 64.677 21.9962C64.9484 22.0782 65.2102 22.1511 65.4671 22.2058C65.6658 22.2423 65.8597 22.2787 66.0488 22.3197C66.2378 22.3561 66.4414 22.3835 66.6595 22.4017C67.1782 22.4381 67.6677 22.3334 68.1331 22.0782C68.5984 21.8277 68.8456 21.4313 68.865 20.8892C68.865 20.3653 68.6566 19.9553 68.2397 19.6591C68.041 19.5088 67.818 19.3995 67.5659 19.3357C67.3187 19.2719 67.0764 19.24 66.8389 19.24C66.3202 19.24 65.8161 19.1671 65.3168 19.0259C64.8224 18.8892 64.3668 18.6888 63.9499 18.4245C63.5331 18.1649 63.1647 17.8414 62.8448 17.4587C62.5297 17.076 62.3019 16.6433 62.1613 16.1558C62.0013 15.6729 61.9626 15.1854 62.0401 14.7025C62.1225 14.215 62.2825 13.764 62.52 13.3449C62.7575 12.9258 63.0677 12.5522 63.4555 12.2242C63.8433 11.8962 64.2747 11.6319 64.7546 11.4269C65.2102 11.2219 65.6658 11.0944 66.1215 11.0488C66.582 11.0033 67.0473 10.9896 67.5223 11.0078C67.8035 11.026 68.0797 11.0488 68.356 11.0761C68.6372 11.1035 68.9135 11.1536 69.1898 11.231C69.4321 11.2857 69.6745 11.354 69.9217 11.4406C70.1689 11.5226 70.4016 11.6411 70.6197 11.7914C71.0171 12.0511 71.2159 12.4019 71.2159 12.8392C71.2159 13.2766 71.0171 13.6274 70.6197 13.8916C70.4016 14.0009 70.1834 14.0647 69.9653 14.0738C69.7472 14.0829 69.5242 14.0647 69.2964 14.0146C69.0686 13.969 68.8408 13.9144 68.6129 13.846C68.3803 13.7823 68.1573 13.7321 67.9392 13.6957C67.5223 13.6365 67.1006 13.6182 66.6741 13.6365C66.2475 13.6547 65.8743 13.8233 65.5592 14.1422C65.3605 14.3472 65.2296 14.5658 65.1714 14.7982C65.1084 15.0351 65.1084 15.2674 65.1714 15.4998C65.2296 15.7321 65.3459 15.9417 65.5107 16.1285C65.6804 16.3152 65.8937 16.4656 66.1554 16.5795C66.3929 16.6706 66.6789 16.7389 67.0182 16.7754C67.1539 16.7936 67.2896 16.7981 67.4205 16.789C67.5465 16.7799 67.6823 16.7845 67.8228 16.8027C68.3366 16.8574 68.8262 16.9895 69.2818 17.1945C69.7375 17.3995 70.164 17.6637 70.5615 17.9918C70.959 18.3198 71.2789 18.6979 71.5164 19.1261C71.7733 19.5544 71.9333 20.0418 71.9914 20.584Z" fill="white"/>
<path d="M57 12.3703V23.6297C57 24.0195 56.8571 24.345 56.5661 24.6062C56.2751 24.8674 55.9153 25 55.4868 25C55.0582 25 54.7302 24.8674 54.4392 24.6062C54.1481 24.345 54 24.0195 54 23.6297V12.3703C54 11.9845 54.1481 11.659 54.4392 11.3938C54.7302 11.1326 55.0794 11 55.4868 11C55.9153 11 56.2751 11.1326 56.5661 11.3938C56.8571 11.659 57 11.9845 57 12.3703Z" fill="white"/>
<path d="M60.3763 3.87688C60.386 4.57829 59.8542 5.10895 59.1241 5.11818C58.3941 5.12279 57.8284 4.61059 57.809 3.92303C57.7945 3.24931 58.365 2.69096 59.0758 2.68173C59.8058 2.66789 60.3666 3.1801 60.3763 3.87688Z" fill="#D7EDF2"/>
<path d="M58.3312 1.19561C58.3409 1.87855 57.7752 2.4369 57.0693 2.44613C56.3538 2.44613 55.7736 1.91547 55.7639 1.24175C55.7542 0.554193 56.3054 0.00968372 57.0258 0.00045475C57.7559 -0.0133887 58.3167 0.503434 58.3312 1.19561Z" fill="#D7EDF2"/>
<path d="M58.3119 6.62687C58.4086 7.69282 57.2627 8.34346 56.3103 7.96046C55.6334 7.6882 55.0532 7.65129 54.3812 7.96046C53.743 8.25578 52.9888 7.93738 52.6455 7.34673C52.3022 6.75608 52.4715 5.98084 53.0855 5.59322C53.627 5.25175 53.8832 4.80415 53.9316 4.19504C53.9799 3.50286 54.5552 2.99527 55.2563 2.95374C55.9622 2.91221 56.7019 3.37827 56.7261 4.09352C56.7406 4.61495 56.9678 5.11332 57.6882 5.69013C57.9686 5.91162 58.3119 6.26233 58.3119 6.62687Z" fill="#D7EDF2"/>
<path d="M53.6511 0.000459571C54.3812 0.0189175 54.9372 0.563427 54.9227 1.23714C54.9033 1.91547 54.3135 2.45998 53.6076 2.44614C52.9066 2.43229 52.3264 1.86471 52.3361 1.19561C52.3506 0.521897 52.9404 -0.0179984 53.6511 0.000459571Z" fill="#D7EDF2"/>
<path d="M52.8582 3.93203C52.8679 4.6242 52.3216 5.1641 51.6012 5.16871C50.8663 5.17794 50.3006 4.66112 50.291 3.97817C50.2813 3.29523 50.8373 2.7461 51.5528 2.73688C52.2781 2.72765 52.8486 3.24908 52.8582 3.93203Z" fill="#D7EDF2"/>
<path d="M48.5155 12.6284V25.8489C48.4188 26.7395 48.235 27.547 47.9595 28.2715C47.6694 29.0283 47.2536 29.6789 46.7072 30.2188C46.1803 30.7726 45.5034 31.2109 44.667 31.5247C43.7919 31.8431 42.8007 32 41.6936 32C40.8765 32 40.1368 31.8893 39.4744 31.6632C39.1456 31.5524 38.8265 31.4186 38.5123 31.2617C38.2029 31.1048 37.9128 30.9202 37.6372 30.7172C37.2311 30.4034 36.8588 30.0527 36.53 29.6605C36.5107 29.642 36.4865 29.6097 36.4575 29.5636C36.4285 29.5174 36.3947 29.4667 36.356 29.4113C36.2013 29.1898 36.1239 28.9591 36.1239 28.7283C36.1239 28.4976 36.1819 28.2854 36.298 28.0869C36.414 27.8931 36.5687 27.7362 36.7621 27.6163C36.9603 27.4963 37.1924 27.4363 37.4631 27.4363C37.9128 27.4363 38.2706 27.6116 38.5413 27.9623C38.7927 28.313 39.136 28.6222 39.5614 28.8806C40.1658 29.2359 40.8765 29.4113 41.6936 29.4113C42.5107 29.4113 43.2552 29.3005 43.8209 29.0744C44.3624 28.8345 44.783 28.5299 45.0731 28.1562C45.3873 27.7132 45.5807 27.2471 45.6581 26.7672C45.7161 26.5042 45.7548 26.2319 45.7741 25.9458C45.7935 25.6597 45.8031 25.3644 45.8031 25.0691V23.4263C45.2955 23.9108 44.7153 24.2892 44.053 24.5661C43.3712 24.866 42.588 25.0137 41.6936 25.0137C40.7024 25.0137 39.7597 24.8291 38.8652 24.4553C37.9515 24.0862 37.1827 23.5924 36.559 22.9833C36.2303 22.6649 35.9353 22.3281 35.6839 21.9635C35.4325 21.6036 35.2005 21.2114 34.9829 20.7822C34.6155 19.947 34.4317 19.0379 34.4317 18.055C34.4317 17.0722 34.6155 16.1723 34.9829 15.3556C35.2005 14.931 35.4325 14.5342 35.6839 14.1743C35.9353 13.8097 36.2303 13.4729 36.559 13.1591C37.2214 12.5269 37.9901 12.0331 38.8652 11.6824C39.7597 11.3133 40.7024 11.1241 41.6936 11.1241C42.588 11.1241 43.3712 11.2764 44.053 11.5717C44.0723 11.5901 44.0916 11.5994 44.111 11.5994C44.1303 11.5994 44.1593 11.6086 44.198 11.6271C44.5703 11.8116 44.9619 11.8993 45.3825 11.8901C45.7983 11.8809 46.1803 11.7747 46.5332 11.5717C46.6299 11.5348 46.7314 11.4979 46.8378 11.4609C46.9441 11.424 47.0747 11.4056 47.2342 11.4056C47.5823 11.4056 47.8821 11.5255 48.1383 11.7655C48.3898 12.0055 48.5155 12.2962 48.5155 12.6284ZM46.4172 18.055C46.4172 17.3121 46.2189 16.5969 45.8322 15.9139C45.4647 15.2448 44.899 14.6772 44.14 14.2158C43.4244 13.7866 42.6073 13.5744 41.6936 13.5744C41.0119 13.5744 40.3979 13.6851 39.8564 13.9066C39.252 14.1696 38.7492 14.4927 38.3382 14.8849C37.9273 15.2771 37.5792 15.7663 37.3471 16.3015C37.0957 16.8414 36.97 17.4229 36.97 18.055C36.97 18.7241 37.0957 19.3102 37.3471 19.8085C37.4631 20.0854 37.6034 20.3484 37.7677 20.5884C37.937 20.8284 38.1255 21.0498 38.3382 21.2575C38.8072 21.7005 39.31 22.0281 39.8564 22.2312C40.3785 22.4711 40.9925 22.5911 41.6936 22.5911C42.5493 22.5911 43.3616 22.3788 44.14 21.9497C44.899 21.4882 45.4647 20.9206 45.8322 20.2562C46.2189 19.5501 46.4172 18.8164 46.4172 18.055Z" fill="white"/>
<path d="M31.0095 15.3833C31.4011 16.2369 31.5945 17.1368 31.5945 18.0827C31.5945 19.0287 31.4011 19.9285 31.0095 20.7822C30.6421 21.6174 30.1151 22.3604 29.4382 23.011C28.7952 23.657 28.0265 24.16 27.132 24.5107C26.2763 24.866 25.3335 25.0414 24.3037 25.0414C23.2739 25.0414 22.3311 24.866 21.4753 24.5107C20.6002 24.16 19.8218 23.657 19.145 23.011C18.8114 22.6926 18.5213 22.3511 18.2699 21.9774C18.0136 21.6082 17.7912 21.2114 17.5978 20.7822C17.211 19.9285 17.0128 19.0287 17.0128 18.0827C17.0128 17.1368 17.211 16.2369 17.5978 15.3833C17.9653 14.548 18.4826 13.8143 19.145 13.1868C19.8218 12.5361 20.6002 12.0331 21.4753 11.6824C22.3698 11.3133 23.3125 11.1241 24.3037 11.1241C25.2948 11.1241 26.2376 11.3133 27.132 11.6824C28.0265 12.0331 28.7952 12.5361 29.4382 13.1868C30.1151 13.7959 30.6421 14.5296 31.0095 15.3833ZM28.9402 19.001C28.9982 18.7057 29.0273 18.4011 29.0273 18.0827C29.0273 17.4505 28.9016 16.8691 28.6501 16.3292C28.5341 16.0524 28.3891 15.7939 28.2247 15.5494C28.0603 15.3094 27.8717 15.0879 27.659 14.8849C27.4463 14.6819 27.2094 14.4973 26.958 14.3404C26.7066 14.1835 26.431 14.0497 26.1409 13.9343C25.5752 13.6944 24.966 13.5744 24.3037 13.5744C23.9749 13.5744 23.651 13.6021 23.3415 13.6574C23.0321 13.7128 22.7372 13.8051 22.4665 13.9343C22.1764 14.0497 21.9056 14.1835 21.6494 14.3404C21.398 14.4973 21.1659 14.6772 20.9532 14.8849C20.5229 15.3279 20.1844 15.8124 19.9282 16.3292C19.6961 16.8876 19.5801 17.469 19.5801 18.0827C19.5801 18.7334 19.6961 19.3194 19.9282 19.8362C20.1844 20.3577 20.5229 20.8376 20.9532 21.2852C21.4173 21.6913 21.925 22.0189 22.4665 22.2588C23.0128 22.4803 23.622 22.5911 24.3037 22.5911C24.9467 22.5911 25.5607 22.4803 26.1409 22.2588C26.6872 22.0189 27.19 21.6913 27.659 21.2852C27.8717 21.0821 28.0603 20.856 28.2247 20.6161C28.3891 20.3761 28.5341 20.1131 28.6501 19.8362C28.7855 19.5778 28.8822 19.2963 28.9402 19.001Z" fill="white"/>
<path d="M14.1417 6.29998V23.3914C14.1417 23.7702 14.0112 24.0835 13.7453 24.336C13.4842 24.5885 13.17 24.7194 12.7977 24.7194C12.5269 24.7194 12.3142 24.6773 12.1595 24.5885C11.9999 24.5043 11.8742 24.4061 11.7775 24.2939C11.6228 24.1069 11.4246 23.9993 11.1829 23.9712C10.9363 23.9432 10.709 23.9946 10.4963 24.1256C10.3609 24.2191 10.2256 24.2986 10.0854 24.364L9.65023 24.5745C8.94919 24.8597 8.16112 25 7.29085 25C6.31423 25 5.36178 24.813 4.42866 24.4342C3.59708 24.1162 2.82835 23.6159 2.12731 22.9425C1.79854 22.6198 1.50362 22.2738 1.25221 21.895C1.0008 21.5209 0.773566 21.1188 0.580174 20.6839C0.193391 19.8188 0 18.9069 0 17.9483C0 16.9897 0.193391 16.0779 0.580174 15.2128C0.971792 14.3477 1.48428 13.6042 2.12731 12.9869C2.45607 12.6643 2.81384 12.3837 3.19096 12.1405C3.57291 11.8927 3.98386 11.6682 4.42866 11.4625C5.36178 11.0884 6.31423 10.8967 7.29085 10.8967H10.0854C10.477 10.8967 10.7961 10.7751 11.0523 10.5319C11.3037 10.2888 11.4294 9.97545 11.4294 9.60136V6.29998C11.4294 6.03811 11.502 5.8043 11.647 5.59387C11.792 5.38812 11.9854 5.22913 12.2175 5.1169C12.4496 5.02338 12.6768 4.98597 12.8992 5.00468C13.1264 5.02338 13.3295 5.08885 13.5132 5.20108C13.6969 5.3133 13.8517 5.46294 13.9677 5.64999C14.0837 5.84171 14.1417 6.05682 14.1417 6.29998ZM12.0434 17.9483C12.0434 17.1955 11.8452 16.4753 11.4584 15.7786C11.0668 15.0444 10.4963 14.4599 9.73726 14.0297C8.99753 13.5948 8.18046 13.3797 7.29085 13.3797C6.62849 13.3797 6.01447 13.5013 5.45364 13.7444C5.15871 13.8614 4.88797 13.997 4.63656 14.156C4.38031 14.3149 4.14824 14.4973 3.93551 14.7077C3.52456 15.1005 3.18612 15.5915 2.91537 16.1714C2.68331 16.7372 2.56244 17.3264 2.56244 17.9483C2.56244 18.6077 2.68331 19.2015 2.91537 19.7253C3.18612 20.3098 3.52456 20.7961 3.93551 21.1936C4.14824 21.3993 4.38031 21.5817 4.63656 21.7407C4.88797 21.9044 5.15871 22.04 5.45364 22.1522C6.01447 22.3954 6.62849 22.517 7.29085 22.517C8.22397 22.517 9.03621 22.3018 9.73726 21.867C10.4963 21.4555 11.0668 20.8803 11.4584 20.1508C11.8452 19.4541 12.0434 18.7199 12.0434 17.9483Z" fill="white"/>
</svg>
