<svg width="30" height="30" viewBox="0 0 24 24" fill="none" xmlns="http://www.w3.org/2000/svg">
<path d="M20.9998 12.204C21.017 13.5073 20.0679 14.4934 18.7649 14.5106C17.462 14.5191 16.4524 13.5674 16.4179 12.2897C16.392 11.0379 17.4102 10.0003 18.6786 9.98318C19.9816 9.95745 20.9825 10.9092 20.9998 12.204Z" fill="#81C9D9"/>
<path d="M17.3498 7.22164C17.3671 8.49068 16.3575 9.52821 15.0977 9.54536C13.8207 9.54536 12.7852 8.55928 12.768 7.30738C12.7507 6.02976 13.7344 5.01796 15.0201 5.00081C16.323 4.97509 17.3239 5.93544 17.3498 7.22164Z" fill="#81C9D9"/>
<path d="M17.3153 17.314C17.4879 19.2948 15.4429 20.5038 13.743 19.7921C12.535 19.2862 11.4996 19.2176 10.3002 19.7921C9.16117 20.3409 7.81509 19.7492 7.20245 18.6517C6.58981 17.5541 6.89181 16.1136 7.98766 15.3933C8.95408 14.7588 9.4114 13.9271 9.49769 12.7952C9.58397 11.509 10.6108 10.5658 11.862 10.4887C13.1218 10.4115 14.442 11.2775 14.4851 12.6066C14.511 13.5755 14.9165 14.5016 16.2022 15.5734C16.7027 15.985 17.3153 16.6367 17.3153 17.314Z" fill="#81C9D9"/>
<path d="M8.99719 5.00085C10.3001 5.03515 11.2924 6.04696 11.2665 7.29885C11.232 8.55932 10.1793 9.57112 8.91953 9.5454C7.66836 9.51968 6.63292 8.465 6.65018 7.22168C6.67606 5.96979 7.72877 4.96656 8.99719 5.00085Z" fill="#81C9D9"/>
<path d="M7.58209 12.3065C7.59934 13.5927 6.62429 14.5959 5.33861 14.6045C4.02704 14.6216 3.01748 13.6613 3.00022 12.3922C2.98296 11.1232 3.97527 10.1028 5.25232 10.0857C6.54663 10.0685 7.56483 11.0375 7.58209 12.3065Z" fill="#81C9D9"/>
</svg>
