<svg width="26" height="26" viewBox="0 0 26 26" fill="none" xmlns="http://www.w3.org/2000/svg">
<rect x="0.5" y="0.5" width="25" height="25" rx="12.5" fill="white"/>
<rect x="0.5" y="0.5" width="25" height="25" rx="12.5" stroke="#84D1E2"/>
<path d="M13.4289 21C13.1089 21 12.8089 20.9333 12.5289 20.8C12.2622 20.6533 12.1289 20.4467 12.1289 20.18V9.5L11.4889 10.14C11.4089 10.1933 11.3289 10.24 11.2489 10.28C11.1689 10.3067 11.0956 10.32 11.0289 10.32C10.7756 10.32 10.5689 10.2133 10.4089 10C10.2622 9.77333 10.1889 9.53333 10.1889 9.28C10.1889 9.09333 10.2289 8.92 10.3089 8.76C10.3889 8.58667 10.5089 8.44667 10.6689 8.34L13.0289 6.54C13.1089 6.47333 13.1889 6.42667 13.2689 6.4C13.3622 6.36 13.4689 6.34 13.5889 6.34C13.8556 6.34 14.1089 6.42 14.3489 6.58C14.6022 6.72667 14.7289 6.92667 14.7289 7.18V20.18C14.7289 20.4467 14.5956 20.6533 14.3289 20.8C14.0622 20.9333 13.7622 21 13.4289 21Z" fill="#84D1E2"/>
</svg>
