<svg width="26" height="26" viewBox="0 0 26 26" fill="none" xmlns="http://www.w3.org/2000/svg">
<rect x="0.5" y="0.5" width="25" height="25" rx="12.5" fill="white"/>
<rect x="0.5" y="0.5" width="25" height="25" rx="12.5" stroke="#84D1E2"/>
<path d="M9.61117 21C9.38451 21 9.13784 20.9267 8.87117 20.78C8.60451 20.62 8.47117 20.42 8.47117 20.18V18.24C8.47117 17.7067 8.62451 17.2133 8.93117 16.76C9.23784 16.2933 9.63784 15.8533 10.1312 15.44C10.6245 15.0267 11.1445 14.6267 11.6912 14.24C12.2378 13.8533 12.7512 13.46 13.2312 13.06C13.7245 12.66 14.1245 12.2533 14.4312 11.84C14.7512 11.4267 14.9112 10.9867 14.9112 10.52C14.9112 10.24 14.8445 9.96667 14.7112 9.7C14.5912 9.42 14.3912 9.19333 14.1112 9.02C13.8445 8.83333 13.4912 8.74 13.0512 8.74C12.5712 8.74 12.1512 8.88 11.7912 9.16C11.4445 9.42667 11.2712 9.87333 11.2712 10.5C11.2712 10.74 11.1512 10.96 10.9112 11.16C10.6712 11.36 10.3378 11.46 9.91117 11.46C9.56451 11.46 9.28451 11.36 9.07117 11.16C8.85784 10.96 8.75117 10.5933 8.75117 10.06C8.75117 9.3 8.95117 8.64667 9.35117 8.1C9.75117 7.54 10.2778 7.11333 10.9312 6.82C11.5978 6.52667 12.2978 6.38 13.0312 6.38C13.8045 6.38 14.5312 6.54667 15.2112 6.88C15.9045 7.2 16.4578 7.66 16.8712 8.26C17.2978 8.86 17.5112 9.58667 17.5112 10.44C17.5112 11.1467 17.3578 11.7867 17.0512 12.36C16.7445 12.9333 16.3512 13.4533 15.8712 13.92C15.3912 14.3867 14.8778 14.8133 14.3312 15.2C13.7978 15.5733 13.2912 15.9267 12.8112 16.26C12.3312 16.58 11.9378 16.9 11.6312 17.22C11.3245 17.54 11.1712 17.88 11.1712 18.24V18.72H16.7312C16.9578 18.72 17.1512 18.8333 17.3112 19.06C17.4712 19.2733 17.5512 19.5333 17.5512 19.84C17.5512 20.1467 17.4712 20.42 17.3112 20.66C17.1512 20.8867 16.9578 21 16.7312 21H9.61117Z" fill="#84D1E2"/>
</svg>

