<svg width="25" height="23" viewBox="0 0 25 23" fill="none" xmlns="http://www.w3.org/2000/svg">
<path d="M0.584 23C0.584 22.232 0.584 21.48 0.584 20.744C0.584 19.976 0.584 19.208 0.584 18.44C0.584 16.744 0.68 15.352 0.872 14.264C1.096 13.176 1.512 12.344 2.12 11.768C2.76 11.16 3.656 10.744 4.808 10.52C5.992 10.264 7.528 10.136 9.416 10.136C10.312 10.136 11.032 10.136 11.576 10.136C12.152 10.136 12.872 10.136 13.736 10.136C14.696 10.136 15.512 9.992 16.184 9.704C16.888 9.384 17.24 8.696 17.24 7.64C17.24 6.712 16.968 6.088 16.424 5.768C15.912 5.448 15.256 5.256 14.456 5.192C13.752 5.16 13.112 5.144 12.536 5.144C11.96 5.112 11.192 5.096 10.232 5.096C9.016 5.096 7.944 5.128 7.016 5.192C6.12 5.256 5.4 5.336 4.856 5.432C4.6 5.464 4.184 5.528 3.608 5.624C3.032 5.72 2.456 5.832 1.88 5.96C1.336 6.056 0.952 6.2 0.728 6.392C0.728 6.104 0.728 5.752 0.728 5.336C0.728 4.92 0.728 4.536 0.728 4.184C0.728 3.832 0.728 3.656 0.728 3.656C0.728 3.112 0.968 2.664 1.448 2.312C1.928 1.96 2.632 1.672 3.56 1.448C4.52 1.224 5.672 1.064 7.016 0.967999C8.392 0.871999 9.944 0.823999 11.672 0.823999C14.136 0.823999 16.296 0.951999 18.152 1.208C20.008 1.464 21.448 2.088 22.472 3.08C23.496 4.04 24.008 5.576 24.008 7.688C24.008 9.736 23.64 11.256 22.904 12.248C22.168 13.208 21.16 13.848 19.88 14.168C18.6 14.456 17.144 14.6 15.512 14.6C15.032 14.6 14.472 14.6 13.832 14.6C13.224 14.6 12.424 14.6 11.432 14.6C10.536 14.6 9.816 14.696 9.272 14.888C8.76 15.08 8.392 15.368 8.168 15.752C7.976 16.136 7.88 16.664 7.88 17.336V18.824H24.344V23H0.584Z" fill="#84D1E2"/>
</svg>
