<svg width="26" height="26" viewBox="0 0 26 26" fill="none" xmlns="http://www.w3.org/2000/svg">
<rect x="0.5" y="0.5" width="25" height="25" rx="12.5" fill="white"/>
<rect x="0.5" y="0.5" width="25" height="25" rx="12.5" stroke="#84D1E2"/>
<path d="M12.7652 21.12C11.9518 21.12 11.2518 21.0067 10.6652 20.78C10.0918 20.5533 9.61849 20.26 9.24516 19.9C8.87182 19.54 8.59849 19.1467 8.42516 18.72C8.26516 18.2933 8.18516 17.88 8.18516 17.48C8.18516 17.08 8.27182 16.8133 8.44516 16.68C8.63182 16.5333 8.95182 16.46 9.40516 16.46C9.93849 16.46 10.2918 16.5333 10.4652 16.68C10.6518 16.8133 10.7452 17.0467 10.7452 17.38C10.7452 17.6067 10.7918 17.8133 10.8852 18C10.9785 18.1733 11.1118 18.3267 11.2852 18.46C11.4718 18.58 11.6918 18.6733 11.9452 18.74C12.2118 18.8067 12.5052 18.84 12.8252 18.84C13.5718 18.84 14.1118 18.6733 14.4452 18.34C14.7918 18.0067 14.9652 17.4533 14.9652 16.68V16.3C14.9652 15.5667 14.7585 15.0667 14.3452 14.8C13.9452 14.5333 13.4252 14.4 12.7852 14.4C12.4918 14.4 12.2852 14.2933 12.1652 14.08C12.0452 13.8667 11.9852 13.6333 11.9852 13.38C11.9852 13.1267 12.0452 12.8933 12.1652 12.68C12.2852 12.4667 12.4852 12.36 12.7652 12.36C13.0985 12.36 13.4052 12.32 13.6852 12.24C13.9652 12.1467 14.1852 11.96 14.3452 11.68C14.5185 11.4 14.6052 10.9733 14.6052 10.4C14.6052 9.73333 14.4452 9.27333 14.1252 9.02C13.8185 8.76667 13.3918 8.64 12.8452 8.64C12.5252 8.64 12.2518 8.67333 12.0252 8.74C11.7985 8.79333 11.6118 8.88 11.4652 9C11.3185 9.12 11.2118 9.26 11.1452 9.42C11.0918 9.58 11.0652 9.76667 11.0652 9.98C11.0652 10.2733 10.9785 10.5133 10.8052 10.7C10.6452 10.8867 10.3252 10.98 9.84516 10.98C9.44516 10.98 9.15182 10.9467 8.96516 10.88C8.77849 10.8133 8.65182 10.7 8.58516 10.54C8.51849 10.3667 8.48516 10.14 8.48516 9.86C8.48516 9.5 8.55849 9.12 8.70516 8.72C8.85182 8.32 9.09182 7.94 9.42516 7.58C9.75849 7.22 10.2052 6.93333 10.7652 6.72C11.3252 6.49333 12.0252 6.38 12.8652 6.38C13.6785 6.38 14.3985 6.49333 15.0252 6.72C15.6652 6.94667 16.1718 7.32 16.5452 7.84C16.9185 8.36 17.1052 9.06667 17.1052 9.96C17.1052 10.7467 16.9652 11.44 16.6852 12.04C16.4052 12.64 16.0185 13.0533 15.5252 13.28C16.1118 13.5067 16.5985 13.86 16.9852 14.34C17.3718 14.82 17.5652 15.4733 17.5652 16.3V16.68C17.5652 17.76 17.3452 18.6267 16.9052 19.28C16.4785 19.92 15.8985 20.3867 15.1652 20.68C14.4452 20.9733 13.6452 21.12 12.7652 21.12Z" fill="#84D1E2"/>
</svg>

