<svg width="25" height="24" viewBox="0 0 25 24" fill="none" xmlns="http://www.w3.org/2000/svg">
<path d="M12.48 23.24C11.264 23.24 10.064 23.208 8.88 23.144C7.728 23.112 6.64 23.048 5.616 22.952C4.592 22.824 3.664 22.632 2.832 22.376C2.192 22.184 1.712 21.896 1.392 21.512C1.104 21.128 0.96 20.616 0.96 19.976V17.672C2.56 18.12 4.288 18.456 6.144 18.68C8 18.872 9.76 18.968 11.424 18.968C12.8 18.968 13.888 18.888 14.688 18.728C15.488 18.536 16.08 18.232 16.464 17.816C16.848 17.4 17.04 16.84 17.04 16.136C17.04 15.464 16.928 14.968 16.704 14.648C16.512 14.296 16.24 14.072 15.888 13.976C15.536 13.88 15.152 13.832 14.736 13.832H4.32V9.704H14.88C15.488 9.704 15.936 9.544 16.224 9.224C16.544 8.872 16.704 8.344 16.704 7.64C16.704 6.936 16.528 6.408 16.176 6.056C15.856 5.704 15.376 5.464 14.736 5.336C14.096 5.208 13.312 5.144 12.384 5.144C12.096 5.144 11.808 5.144 11.52 5.144C11.232 5.144 10.928 5.144 10.608 5.144C9.776 5.144 8.784 5.192 7.632 5.288C6.512 5.384 5.408 5.528 4.32 5.72C3.264 5.912 2.368 6.136 1.632 6.392V4.04C1.632 3.304 1.824 2.744 2.208 2.36C2.592 1.944 3.168 1.64 3.936 1.448C4.512 1.32 5.616 1.192 7.248 1.064C8.88 0.903999 10.72 0.823999 12.768 0.823999C15.68 0.823999 17.952 0.983999 19.584 1.304C21.216 1.624 22.368 2.264 23.04 3.224C23.712 4.152 24.048 5.528 24.048 7.352C24.048 8.44 23.824 9.368 23.376 10.136C22.928 10.872 22.224 11.304 21.264 11.432V11.48C22.512 11.48 23.392 11.88 23.904 12.68C24.416 13.448 24.672 14.664 24.672 16.328C24.672 18.248 24.256 19.704 23.424 20.696C22.624 21.688 21.328 22.36 19.536 22.712C17.776 23.064 15.424 23.24 12.48 23.24Z" fill="#84D1E2"/>
</svg>
